<?xml version="1.0" encoding="UTF-8"?>
<!-- Generated by Pixelmator Pro 3.6.6 -->
<svg width="512" height="512" viewBox="0 0 512 512" xmlns="http://www.w3.org/2000/svg">
    <path id="Circle" fill="#eb306d" fill-rule="evenodd" stroke="#1f2124" stroke-width="51" stroke-linecap="round" opacity="0.871403" d="M 266.515625 26.234375 L 278.203125 27.046875 L 289.703125 28.4375 L 300.8125 30.34375 L 312.296875 32.921875 L 323.359375 35.984375 L 333.75 39.421875 L 344.484375 43.59375 L 357.109375 49.296875 L 368.5 55.25 L 377.65625 60.671875 L 387.21875 66.96875 L 396.078125 73.421875 L 404.875 80.53125 L 413.03125 87.75 L 420.71875 95.265625 L 428.53125 103.640625 L 435.640625 112.046875 L 442.46875 120.953125 L 448.546875 129.75 L 454.640625 139.46875 L 460.609375 150.25 L 465.625 160.484375 L 469.953125 170.578125 L 473.90625 181.203125 L 477.296875 191.859375 L 482.125 211.625 L 484.046875 222.78125 L 485.4375 234.28125 L 486.25 245.953125 L 486.484375 256.5 L 486.25 267.03125 L 485.4375 278.703125 L 484.046875 290.203125 L 482.140625 301.3125 L 479.5625 312.796875 L 476.5 323.859375 L 473.0625 334.25 L 468.890625 344.984375 L 463.1875 357.609375 L 457.296875 368.875 L 451.8125 378.15625 L 445.515625 387.71875 L 439.0625 396.578125 L 431.953125 405.375 L 424.734375 413.53125 L 417.21875 421.21875 L 408.84375 429.03125 L 400.4375 436.140625 L 391.53125 442.96875 L 382.734375 449.046875 L 373.015625 455.140625 L 362.234375 461.109375 L 352 466.125 L 341.90625 470.453125 L 331.28125 474.40625 L 320.625 477.796875 L 300.859375 482.625 L 289.703125 484.546875 L 278.203125 485.9375 L 266.53125 486.75 L 256 486.984375 L 245.453125 486.75 L 233.78125 485.9375 L 222.28125 484.546875 L 211.171875 482.640625 L 199.6875 480.0625 L 188.625 477 L 178.234375 473.5625 L 167.5 469.390625 L 154.875 463.6875 L 143.484375 457.734375 L 134.328125 452.3125 L 124.765625 446.015625 L 115.90625 439.5625 L 107.109375 432.453125 L 98.953125 425.234375 L 91.265625 417.71875 L 83.453125 409.34375 L 76.34375 400.9375 L 69.515625 392.03125 L 63.4375 383.234375 L 57.34375 373.515625 L 51.375 362.734375 L 46.359375 352.5 L 42.03125 342.40625 L 38.078125 331.78125 L 34.6875 321.125 L 29.859375 301.359375 L 27.9375 290.203125 L 26.546875 278.703125 L 25.734375 267.015625 L 25.515625 256.5 L 25.734375 245.96875 L 26.546875 234.28125 L 27.9375 222.78125 L 29.859375 211.625 L 34.6875 191.859375 L 38.078125 181.203125 L 42.03125 170.578125 L 46.359375 160.484375 L 51.375 150.25 L 57.34375 139.46875 L 63.4375 129.75 L 69.515625 120.953125 L 76.34375 112.046875 L 83.453125 103.640625 L 91.265625 95.265625 L 98.953125 87.75 L 107.109375 80.53125 L 115.90625 73.421875 L 124.765625 66.96875 L 134.328125 60.671875 L 143.484375 55.25 L 154.875 49.296875 L 167.5 43.59375 L 178.234375 39.421875 L 188.625 35.984375 L 199.6875 32.921875 L 211.171875 30.34375 L 222.28125 28.4375 L 233.78125 27.046875 L 245.46875 26.234375 L 256 26.015625 Z"/>
</svg>
