<?xml version="1.0" encoding="UTF-8"?>
<!-- Generated by Pixelmator Pro 3.5.3 -->
<svg width="223" height="377" viewBox="0 0 223 377" xmlns="http://www.w3.org/2000/svg">
            <path id="path154" fill="#7a1423" stroke="none" d="M 106.963989 56.726746 C 22.963989 86.505371 64.058655 167.122711 82.019989 181.949402 C 91.518646 189.79071 99.353302 253.670715 101.019989 258.949402 C 101.686646 266.004059 92.750641 302.237366 88.241333 307.061371 C 73.337341 295.797363 49.797333 247.282715 50.034668 232.546722 C 72.019989 252.616058 85.714661 238.952026 70.922638 202.990692 C 55.686646 165.949402 40.353302 181.616058 34.47998 193.880066 C 18.686661 186.949402 1.811996 150.546722 0.255997 134.325378 C 10.478653 141.213379 19.811996 155.213379 41.589325 152.992035 C 41.366669 112.325378 3.367996 111.213379 3.367996 108.102722 C 3.367996 98.949402 35.701324 60.436035 35.701324 60.436035 C 35.797333 -9.827942 38.90799 39.505371 64.701324 35.658691 C 73.367981 24.936035 107.019989 -0.717285 107.019989 -0.717285 C 107.019989 -0.717285 144.019989 24.782715 152.686646 35.505371 C 176.019989 34.616089 181.798645 -1.161255 181.686646 60.282715 C 181.686646 60.282715 214.019989 99.949402 214.019989 105.282715 C 214.019989 108.393433 177.354645 115.282715 177.131989 155.949402 C 198.909332 158.172058 212.242676 139.726685 222.465332 132.838745 C 220.909332 149.060028 195.798645 196.394714 188.019989 202.616058 C 177.354645 179.505371 163.353302 162.838715 144.242676 215.505371 C 121.689301 277.660034 151.129333 282.394714 160.686646 281.949402 C 128.019989 314.949402 135.131989 365.505371 123.575989 376.838715 C 119.353302 357.17337 118.90799 196.837372 135.353302 181.282715 C 152.272003 165.278717 190.965332 86.505371 106.963989 56.726746"/>
            <path id="path156" fill="#7a1423" stroke="none" d="M 107.722656 173.949402 C 107.722656 173.949402 105.353302 158.838715 94.686646 141.060059 C 86.342682 127.153381 80.555969 125.298706 83.050629 121.616089 C 92.76532 107.282715 94.53067 110.081421 106.195984 94.060059 L 109.249329 92.616089 C 109.249329 92.616089 129.598663 111.393372 133.261322 121.393372 C 134.819977 125.645386 127.563995 134.949402 122.272003 144.505371 C 116.381348 155.144043 114.406677 165.477386 109.839996 171.845398 L 107.722656 173.949402"/>
</svg>
