<?xml version="1.0" encoding="UTF-8"?>
<!-- Generated by Pixelmator Pro 3.3 -->
<svg width="501" height="355" viewBox="0 0 501 355" xmlns="http://www.w3.org/2000/svg" xmlns:xlink="http://www.w3.org/1999/xlink">
    <path id="s" fill="#ffffff" fill-rule="evenodd" stroke="none" d="M 342.174805 354.541504 L 371.57785 354.541504 C 424.347595 354.541504 441.288422 337.767944 441.288422 285.886963 L 441.288422 242.587784 C 441.288422 212.161331 456.671478 197.923325 500.678711 200.848938 L 500.678711 154.429108 C 456.671478 157.354721 441.288422 143.116714 441.288422 112.495224 L 441.288422 69.196045 C 441.288422 17.315063 424.347595 0.541504 371.57785 0.541504 L 342.174805 0.541504 L 342.174805 36.819183 L 361.841736 36.819183 C 390.076477 36.819183 395.723419 43.450592 395.723419 76.217529 L 395.723419 129.853897 C 395.723419 156.574554 415.390381 174.323318 452.192871 175.883652 L 452.192871 179.394394 C 415.390381 180.954727 395.723419 198.508453 395.723419 225.424149 L 395.723419 278.865479 C 395.723419 311.632416 390.076477 318.263824 361.841736 318.263824 L 342.174805 318.263824 Z M 167.727036 135.88266 C 167.727036 167.674393 187.588699 187.958694 226.922592 196.73555 L 258.857056 203.757034 C 283.197327 209.023163 292.154541 216.239685 292.154541 230.282654 C 292.154541 246.861176 276.576782 257.783478 251.847046 257.783478 C 227.701492 257.783478 211.539536 248.226471 207.645096 231.452911 L 162.664261 231.452911 C 165.779816 270.071106 198.882599 293.281006 251.068161 293.281006 C 304.61676 293.281006 338.693176 266.560364 338.693176 225.016541 C 338.693176 193.02977 319.805115 174.89093 277.16095 165.723984 L 245.421204 158.897537 C 222.249268 153.826462 212.513153 146.024811 212.513153 132.371918 C 212.513153 116.378525 227.50676 105.846298 250.289261 105.846298 C 272.292877 105.846298 287.675934 115.793411 290.791504 131.786789 L 333.630402 131.786789 C 330.709564 93.363647 299.748718 70.738861 250.873428 70.738861 C 200.440369 70.738861 167.727036 96.094238 167.727036 135.88266 Z M 159.182617 354.541504 L 159.182617 318.263824 L 139.515671 318.263824 C 111.280945 318.263824 105.634003 311.632416 105.634003 278.865479 L 105.634003 225.424149 C 105.634003 198.508453 85.967056 180.954727 49.164551 179.394394 L 49.164551 175.883652 C 85.967056 174.323318 105.634003 156.574554 105.634003 129.853897 L 105.634003 76.217529 C 105.634003 43.450592 111.280945 36.819183 139.515671 36.819183 L 159.182617 36.819183 L 159.182617 0.541504 L 129.779556 0.541504 C 77.009834 0.541504 60.068996 17.315063 60.068996 69.196045 L 60.068996 112.495224 C 60.068996 143.116714 44.68594 157.354721 0.678711 154.429108 L 0.678711 200.848938 C 44.68594 197.923325 60.068996 212.161331 60.068996 242.587784 L 60.068996 285.886963 C 60.068996 337.767944 77.009834 354.541504 129.779556 354.541504 Z"/>
</svg>
